<svg width="77" height="77" viewBox="0 0 77 77" fill="none" xmlns="http://www.w3.org/2000/svg">
<g clip-path="url(#clip0)">
<path d="M38.6753 0C38.6546 0 38.6134 0 38.5515 0C17.6733 0 0.694336 16.979 0.694336 37.8571C0.694336 46.3776 3.60325 54.6505 8.92594 61.3141L3.41758 74.1257C2.9637 75.1779 3.45884 76.3951 4.49037 76.8283C4.86172 76.9934 5.27433 77.0346 5.66631 76.9728L25.8637 73.4243C29.9073 74.8891 34.1572 75.6318 38.4483 75.6111C59.3265 75.6111 76.3055 58.6322 76.3055 37.754C76.3467 16.9377 59.4915 0.0206306 38.6753 0ZM25.7193 30.2445H36.8598C37.9945 30.2445 38.9228 31.1728 38.9228 32.3075C38.9228 33.4422 37.9945 34.3706 36.8598 34.3706H25.7193C24.5846 34.3706 23.6562 33.4422 23.6562 32.3075C23.6562 31.1728 24.5846 30.2445 25.7193 30.2445ZM51.3012 44.6859H25.7193C24.5846 44.6859 23.6562 43.7575 23.6562 42.6228C23.6562 41.4881 24.5846 40.5598 25.7193 40.5598H51.3012C52.4359 40.5598 53.3643 41.4881 53.3643 42.6228C53.3643 43.7575 52.4359 44.6859 51.3012 44.6859Z" fill="#56D2DA"/>
</g>
<defs>
<clipPath id="clip0">
<rect width="77" height="77" fill="white"/>
</clipPath>
</defs>
</svg>
