<svg width="77" height="77" viewBox="0 0 77 77" fill="none" xmlns="http://www.w3.org/2000/svg">
<g clip-path="url(#clip0)">
<path d="M61.1027 13.5607H56.5821C55.3329 13.5607 54.3218 14.5716 54.3218 15.8211C54.3218 17.0704 55.3327 18.0814 56.5821 18.0814H61.1027C62.352 18.0814 63.3631 17.0705 63.3631 15.8211C63.3629 14.5716 62.352 13.5607 61.1027 13.5607Z" fill="#56D2DA"/>
<path d="M38.2616 5.7688L36.0014 1.24821C35.4386 0.131265 34.0854 -0.316748 32.9685 0.23729C31.8515 0.795689 31.399 2.15326 31.9576 3.27021L34.2179 7.7908C34.7756 8.90323 36.1264 9.36027 37.2509 8.80172C38.3675 8.24332 38.82 6.88575 38.2616 5.7688Z" fill="#56D2DA"/>
<path d="M53.073 0.237446C51.9604 -0.316592 50.5986 0.131571 50.0401 1.24837L47.7797 5.76895C47.2213 6.8859 47.6739 8.24333 48.7907 8.80188C49.9184 9.36193 51.2676 8.89963 51.8236 7.79095L54.0839 3.27037C54.6423 2.15342 54.1898 0.795846 53.073 0.237446Z" fill="#56D2DA"/>
<path d="M29.4587 13.5607H24.9381C23.6888 13.5607 22.6777 14.5716 22.6777 15.8211C22.6777 17.0704 23.6887 18.0814 24.9381 18.0814H29.4587C30.708 18.0814 31.7191 17.0705 31.7191 15.8211C31.7191 14.5716 30.708 13.5607 29.4587 13.5607Z" fill="#56D2DA"/>
<path d="M15.8969 36.3145H6.85558C5.60734 36.3145 4.59521 37.3264 4.59521 38.5748V74.7395C4.59521 75.9877 5.60719 76.9998 6.85558 76.9998H15.8967C17.145 76.9998 18.1571 75.9879 18.1571 74.7395V38.5747C18.1571 37.3264 17.1453 36.3145 15.8969 36.3145Z" fill="#56D2DA"/>
<path d="M72.3598 42.306C71.9611 38.7997 68.6858 36.3145 65.1569 36.3145H47.5349C49.0325 33.6329 49.8363 26.0482 49.8007 22.9499C49.7416 17.8213 45.4944 13.7114 40.3656 13.7114H38.5005C37.2512 13.7114 36.2401 14.7223 36.2401 15.9718C36.2401 21.1986 34.2049 30.6329 30.3665 34.4714C27.7829 37.055 25.5743 37.9912 22.6782 39.4385V73.3543C27.1122 74.8321 32.7419 77 41.3227 77H56.1085C60.9804 77 64.7747 72.4879 62.8869 67.7205C65.7631 66.9369 67.8842 64.2991 67.8842 61.1779C67.8842 60.2971 67.7143 59.454 67.4075 58.6792C72.2544 57.3586 74.0385 51.3738 70.6744 47.616C71.9103 46.2353 72.5919 44.3467 72.3598 42.306Z" fill="#56D2DA"/>
</g>
<defs>
<clipPath id="clip0">
<rect width="77" height="77" fill="white"/>
</clipPath>
</defs>
</svg>
