<svg width="77" height="77" viewBox="0 0 77 77" fill="none" xmlns="http://www.w3.org/2000/svg">
<path d="M26.3194 12.3526H44.6601C44.7818 12.3526 44.9041 12.3535 45.0268 12.3553C47.6505 8.30788 52.121 5.84854 57.0141 5.84854H59.27V16.7791C63.64 19.7004 67.0405 23.8614 69.0242 28.7084H77V48.6357H69.0242C66.1995 55.5477 60.5692 60.9366 53.5493 63.4519V71.1516H38.5018V64.9913H32.4778V71.1515H17.4303V63.4498C12.7014 61.7466 8.47752 58.6669 5.40549 54.6521C1.8692 50.0309 0 44.5049 0 38.6719C0 24.1595 11.8069 12.3526 26.3194 12.3526ZM54.7566 33.2199H59.272V28.7082H54.7566V33.2199ZM27.9642 25.8949H43.0153V21.3831H27.9642V25.8949Z" fill="#56D2DA"/>
</svg>
