<svg width="30" height="30" viewBox="0 0 30 30" fill="none" xmlns="http://www.w3.org/2000/svg">
<path d="M5.4548 12.2726H24.5454C24.9148 12.2726 25.2345 12.1377 25.5042 11.8678C25.7739 11.598 25.9092 11.2784 25.9092 10.9091C25.9092 10.5398 25.7739 10.2203 25.5042 9.95012L15.9589 0.404778C15.6892 0.135225 15.3697 0 15.0001 0C14.6306 0 14.3111 0.135225 14.0412 0.404778L4.49584 9.95012C4.22592 10.22 4.09106 10.5398 4.09106 10.9091C4.09106 11.2783 4.22592 11.598 4.49584 11.8678C4.76607 12.1377 5.08555 12.2726 5.4548 12.2726Z" fill="#56D2DA"/>
<path d="M24.5454 17.7276H5.4548C5.08525 17.7276 4.76577 17.8625 4.49584 18.1322C4.22592 18.4021 4.09106 18.7216 4.09106 19.0909C4.09106 19.4602 4.22592 19.7799 4.49584 20.0497L14.0412 29.5949C14.3114 29.8648 14.6309 30 15.0001 30C15.3694 30 15.6892 29.8648 15.9589 29.5949L25.5042 20.0496C25.7739 19.7799 25.9092 19.4602 25.9092 19.0908C25.9092 18.7216 25.7739 18.4021 25.5042 18.1321C25.2345 17.8622 24.9148 17.7276 24.5454 17.7276Z" fill="#56D2DA"/>
</svg>
